%TF.GenerationSoftware,KiCad,Pcbnew,7.0.6-0*%
%TF.CreationDate,2023-10-04T11:56:43+01:00*%
%TF.ProjectId,NostrZapLamp,4e6f7374-725a-4617-904c-616d702e6b69,rev?*%
%TF.SameCoordinates,Original*%
%TF.FileFunction,Legend,Bot*%
%TF.FilePolarity,Positive*%
%FSLAX46Y46*%
G04 Gerber Fmt 4.6, Leading zero omitted, Abs format (unit mm)*
G04 Created by KiCad (PCBNEW 7.0.6-0) date 2023-10-04 11:56:43*
%MOMM*%
%LPD*%
G01*
G04 APERTURE LIST*
%ADD10C,0.300000*%
G04 APERTURE END LIST*
D10*
X147050714Y-93342923D02*
X147050714Y-93581019D01*
X146574524Y-93342923D02*
X146574524Y-93581019D01*
X146038809Y-94592923D02*
X146038809Y-93342923D01*
X146038809Y-93342923D02*
X145324524Y-94592923D01*
X145324524Y-94592923D02*
X145324524Y-93342923D01*
X144550714Y-94592923D02*
X144669762Y-94533400D01*
X144669762Y-94533400D02*
X144729285Y-94473876D01*
X144729285Y-94473876D02*
X144788809Y-94354828D01*
X144788809Y-94354828D02*
X144788809Y-93997685D01*
X144788809Y-93997685D02*
X144729285Y-93878638D01*
X144729285Y-93878638D02*
X144669762Y-93819114D01*
X144669762Y-93819114D02*
X144550714Y-93759590D01*
X144550714Y-93759590D02*
X144372143Y-93759590D01*
X144372143Y-93759590D02*
X144253095Y-93819114D01*
X144253095Y-93819114D02*
X144193571Y-93878638D01*
X144193571Y-93878638D02*
X144134047Y-93997685D01*
X144134047Y-93997685D02*
X144134047Y-94354828D01*
X144134047Y-94354828D02*
X144193571Y-94473876D01*
X144193571Y-94473876D02*
X144253095Y-94533400D01*
X144253095Y-94533400D02*
X144372143Y-94592923D01*
X144372143Y-94592923D02*
X144550714Y-94592923D01*
X143657857Y-94533400D02*
X143538810Y-94592923D01*
X143538810Y-94592923D02*
X143300714Y-94592923D01*
X143300714Y-94592923D02*
X143181667Y-94533400D01*
X143181667Y-94533400D02*
X143122143Y-94414352D01*
X143122143Y-94414352D02*
X143122143Y-94354828D01*
X143122143Y-94354828D02*
X143181667Y-94235780D01*
X143181667Y-94235780D02*
X143300714Y-94176257D01*
X143300714Y-94176257D02*
X143479286Y-94176257D01*
X143479286Y-94176257D02*
X143598333Y-94116733D01*
X143598333Y-94116733D02*
X143657857Y-93997685D01*
X143657857Y-93997685D02*
X143657857Y-93938161D01*
X143657857Y-93938161D02*
X143598333Y-93819114D01*
X143598333Y-93819114D02*
X143479286Y-93759590D01*
X143479286Y-93759590D02*
X143300714Y-93759590D01*
X143300714Y-93759590D02*
X143181667Y-93819114D01*
X142765000Y-93759590D02*
X142288809Y-93759590D01*
X142586428Y-93342923D02*
X142586428Y-94414352D01*
X142586428Y-94414352D02*
X142526905Y-94533400D01*
X142526905Y-94533400D02*
X142407857Y-94592923D01*
X142407857Y-94592923D02*
X142288809Y-94592923D01*
X141872142Y-94592923D02*
X141872142Y-93759590D01*
X141872142Y-93997685D02*
X141812619Y-93878638D01*
X141812619Y-93878638D02*
X141753095Y-93819114D01*
X141753095Y-93819114D02*
X141634047Y-93759590D01*
X141634047Y-93759590D02*
X141515000Y-93759590D01*
X140145951Y-94592923D02*
X140145951Y-93759590D01*
X140145951Y-93342923D02*
X140205475Y-93402447D01*
X140205475Y-93402447D02*
X140145951Y-93461971D01*
X140145951Y-93461971D02*
X140086428Y-93402447D01*
X140086428Y-93402447D02*
X140145951Y-93342923D01*
X140145951Y-93342923D02*
X140145951Y-93461971D01*
X139610237Y-94533400D02*
X139491190Y-94592923D01*
X139491190Y-94592923D02*
X139253094Y-94592923D01*
X139253094Y-94592923D02*
X139134047Y-94533400D01*
X139134047Y-94533400D02*
X139074523Y-94414352D01*
X139074523Y-94414352D02*
X139074523Y-94354828D01*
X139074523Y-94354828D02*
X139134047Y-94235780D01*
X139134047Y-94235780D02*
X139253094Y-94176257D01*
X139253094Y-94176257D02*
X139431666Y-94176257D01*
X139431666Y-94176257D02*
X139550713Y-94116733D01*
X139550713Y-94116733D02*
X139610237Y-93997685D01*
X139610237Y-93997685D02*
X139610237Y-93938161D01*
X139610237Y-93938161D02*
X139550713Y-93819114D01*
X139550713Y-93819114D02*
X139431666Y-93759590D01*
X139431666Y-93759590D02*
X139253094Y-93759590D01*
X139253094Y-93759590D02*
X139134047Y-93819114D01*
X137764999Y-93759590D02*
X137288808Y-93759590D01*
X137586427Y-93342923D02*
X137586427Y-94414352D01*
X137586427Y-94414352D02*
X137526904Y-94533400D01*
X137526904Y-94533400D02*
X137407856Y-94592923D01*
X137407856Y-94592923D02*
X137288808Y-94592923D01*
X136872141Y-94592923D02*
X136872141Y-93342923D01*
X136336427Y-94592923D02*
X136336427Y-93938161D01*
X136336427Y-93938161D02*
X136395951Y-93819114D01*
X136395951Y-93819114D02*
X136514999Y-93759590D01*
X136514999Y-93759590D02*
X136693570Y-93759590D01*
X136693570Y-93759590D02*
X136812618Y-93819114D01*
X136812618Y-93819114D02*
X136872141Y-93878638D01*
X135264999Y-94533400D02*
X135384047Y-94592923D01*
X135384047Y-94592923D02*
X135622142Y-94592923D01*
X135622142Y-94592923D02*
X135741189Y-94533400D01*
X135741189Y-94533400D02*
X135800713Y-94414352D01*
X135800713Y-94414352D02*
X135800713Y-93938161D01*
X135800713Y-93938161D02*
X135741189Y-93819114D01*
X135741189Y-93819114D02*
X135622142Y-93759590D01*
X135622142Y-93759590D02*
X135384047Y-93759590D01*
X135384047Y-93759590D02*
X135264999Y-93819114D01*
X135264999Y-93819114D02*
X135205475Y-93938161D01*
X135205475Y-93938161D02*
X135205475Y-94057209D01*
X135205475Y-94057209D02*
X135800713Y-94176257D01*
X133241189Y-94533400D02*
X133360237Y-94592923D01*
X133360237Y-94592923D02*
X133598332Y-94592923D01*
X133598332Y-94592923D02*
X133717379Y-94533400D01*
X133717379Y-94533400D02*
X133776903Y-94414352D01*
X133776903Y-94414352D02*
X133776903Y-93938161D01*
X133776903Y-93938161D02*
X133717379Y-93819114D01*
X133717379Y-93819114D02*
X133598332Y-93759590D01*
X133598332Y-93759590D02*
X133360237Y-93759590D01*
X133360237Y-93759590D02*
X133241189Y-93819114D01*
X133241189Y-93819114D02*
X133181665Y-93938161D01*
X133181665Y-93938161D02*
X133181665Y-94057209D01*
X133181665Y-94057209D02*
X133776903Y-94176257D01*
X132764998Y-93759590D02*
X132467379Y-94592923D01*
X132467379Y-94592923D02*
X132169760Y-93759590D01*
X131217379Y-94533400D02*
X131336427Y-94592923D01*
X131336427Y-94592923D02*
X131574522Y-94592923D01*
X131574522Y-94592923D02*
X131693569Y-94533400D01*
X131693569Y-94533400D02*
X131753093Y-94414352D01*
X131753093Y-94414352D02*
X131753093Y-93938161D01*
X131753093Y-93938161D02*
X131693569Y-93819114D01*
X131693569Y-93819114D02*
X131574522Y-93759590D01*
X131574522Y-93759590D02*
X131336427Y-93759590D01*
X131336427Y-93759590D02*
X131217379Y-93819114D01*
X131217379Y-93819114D02*
X131157855Y-93938161D01*
X131157855Y-93938161D02*
X131157855Y-94057209D01*
X131157855Y-94057209D02*
X131753093Y-94176257D01*
X130622140Y-94592923D02*
X130622140Y-93759590D01*
X130622140Y-93997685D02*
X130562617Y-93878638D01*
X130562617Y-93878638D02*
X130503093Y-93819114D01*
X130503093Y-93819114D02*
X130384045Y-93759590D01*
X130384045Y-93759590D02*
X130264998Y-93759590D01*
X129967378Y-93759590D02*
X129669759Y-94592923D01*
X129372140Y-93759590D02*
X129669759Y-94592923D01*
X129669759Y-94592923D02*
X129788807Y-94890542D01*
X129788807Y-94890542D02*
X129848330Y-94950066D01*
X129848330Y-94950066D02*
X129967378Y-95009590D01*
X129074521Y-93759590D02*
X128598330Y-93759590D01*
X128895949Y-93342923D02*
X128895949Y-94414352D01*
X128895949Y-94414352D02*
X128836426Y-94533400D01*
X128836426Y-94533400D02*
X128717378Y-94592923D01*
X128717378Y-94592923D02*
X128598330Y-94592923D01*
X128181663Y-94592923D02*
X128181663Y-93342923D01*
X127645949Y-94592923D02*
X127645949Y-93938161D01*
X127645949Y-93938161D02*
X127705473Y-93819114D01*
X127705473Y-93819114D02*
X127824521Y-93759590D01*
X127824521Y-93759590D02*
X128003092Y-93759590D01*
X128003092Y-93759590D02*
X128122140Y-93819114D01*
X128122140Y-93819114D02*
X128181663Y-93878638D01*
X127050711Y-94592923D02*
X127050711Y-93759590D01*
X127050711Y-93342923D02*
X127110235Y-93402447D01*
X127110235Y-93402447D02*
X127050711Y-93461971D01*
X127050711Y-93461971D02*
X126991188Y-93402447D01*
X126991188Y-93402447D02*
X127050711Y-93342923D01*
X127050711Y-93342923D02*
X127050711Y-93461971D01*
X126455473Y-93759590D02*
X126455473Y-94592923D01*
X126455473Y-93878638D02*
X126395950Y-93819114D01*
X126395950Y-93819114D02*
X126276902Y-93759590D01*
X126276902Y-93759590D02*
X126098331Y-93759590D01*
X126098331Y-93759590D02*
X125979283Y-93819114D01*
X125979283Y-93819114D02*
X125919759Y-93938161D01*
X125919759Y-93938161D02*
X125919759Y-94592923D01*
X124788807Y-93759590D02*
X124788807Y-94771495D01*
X124788807Y-94771495D02*
X124848331Y-94890542D01*
X124848331Y-94890542D02*
X124907855Y-94950066D01*
X124907855Y-94950066D02*
X125026902Y-95009590D01*
X125026902Y-95009590D02*
X125205474Y-95009590D01*
X125205474Y-95009590D02*
X125324521Y-94950066D01*
X124788807Y-94533400D02*
X124907855Y-94592923D01*
X124907855Y-94592923D02*
X125145950Y-94592923D01*
X125145950Y-94592923D02*
X125264998Y-94533400D01*
X125264998Y-94533400D02*
X125324521Y-94473876D01*
X125324521Y-94473876D02*
X125384045Y-94354828D01*
X125384045Y-94354828D02*
X125384045Y-93997685D01*
X125384045Y-93997685D02*
X125324521Y-93878638D01*
X125324521Y-93878638D02*
X125264998Y-93819114D01*
X125264998Y-93819114D02*
X125145950Y-93759590D01*
X125145950Y-93759590D02*
X124907855Y-93759590D01*
X124907855Y-93759590D02*
X124788807Y-93819114D01*
X142884047Y-96605423D02*
X142884047Y-95950661D01*
X142884047Y-95950661D02*
X142943571Y-95831614D01*
X142943571Y-95831614D02*
X143062619Y-95772090D01*
X143062619Y-95772090D02*
X143300714Y-95772090D01*
X143300714Y-95772090D02*
X143419761Y-95831614D01*
X142884047Y-96545900D02*
X143003095Y-96605423D01*
X143003095Y-96605423D02*
X143300714Y-96605423D01*
X143300714Y-96605423D02*
X143419761Y-96545900D01*
X143419761Y-96545900D02*
X143479285Y-96426852D01*
X143479285Y-96426852D02*
X143479285Y-96307804D01*
X143479285Y-96307804D02*
X143419761Y-96188757D01*
X143419761Y-96188757D02*
X143300714Y-96129233D01*
X143300714Y-96129233D02*
X143003095Y-96129233D01*
X143003095Y-96129233D02*
X142884047Y-96069709D01*
X142288809Y-95772090D02*
X142288809Y-97022090D01*
X142288809Y-95831614D02*
X142169762Y-95772090D01*
X142169762Y-95772090D02*
X141931667Y-95772090D01*
X141931667Y-95772090D02*
X141812619Y-95831614D01*
X141812619Y-95831614D02*
X141753095Y-95891138D01*
X141753095Y-95891138D02*
X141693571Y-96010185D01*
X141693571Y-96010185D02*
X141693571Y-96367328D01*
X141693571Y-96367328D02*
X141753095Y-96486376D01*
X141753095Y-96486376D02*
X141812619Y-96545900D01*
X141812619Y-96545900D02*
X141931667Y-96605423D01*
X141931667Y-96605423D02*
X142169762Y-96605423D01*
X142169762Y-96605423D02*
X142288809Y-96545900D01*
X141157857Y-95772090D02*
X141157857Y-97022090D01*
X141157857Y-95831614D02*
X141038810Y-95772090D01*
X141038810Y-95772090D02*
X140800715Y-95772090D01*
X140800715Y-95772090D02*
X140681667Y-95831614D01*
X140681667Y-95831614D02*
X140622143Y-95891138D01*
X140622143Y-95891138D02*
X140562619Y-96010185D01*
X140562619Y-96010185D02*
X140562619Y-96367328D01*
X140562619Y-96367328D02*
X140622143Y-96486376D01*
X140622143Y-96486376D02*
X140681667Y-96545900D01*
X140681667Y-96545900D02*
X140800715Y-96605423D01*
X140800715Y-96605423D02*
X141038810Y-96605423D01*
X141038810Y-96605423D02*
X141157857Y-96545900D01*
X138895953Y-96605423D02*
X139015001Y-96545900D01*
X139015001Y-96545900D02*
X139074524Y-96486376D01*
X139074524Y-96486376D02*
X139134048Y-96367328D01*
X139134048Y-96367328D02*
X139134048Y-96010185D01*
X139134048Y-96010185D02*
X139074524Y-95891138D01*
X139074524Y-95891138D02*
X139015001Y-95831614D01*
X139015001Y-95831614D02*
X138895953Y-95772090D01*
X138895953Y-95772090D02*
X138717382Y-95772090D01*
X138717382Y-95772090D02*
X138598334Y-95831614D01*
X138598334Y-95831614D02*
X138538810Y-95891138D01*
X138538810Y-95891138D02*
X138479286Y-96010185D01*
X138479286Y-96010185D02*
X138479286Y-96367328D01*
X138479286Y-96367328D02*
X138538810Y-96486376D01*
X138538810Y-96486376D02*
X138598334Y-96545900D01*
X138598334Y-96545900D02*
X138717382Y-96605423D01*
X138717382Y-96605423D02*
X138895953Y-96605423D01*
X138122144Y-95772090D02*
X137645953Y-95772090D01*
X137943572Y-96605423D02*
X137943572Y-95533995D01*
X137943572Y-95533995D02*
X137884049Y-95414947D01*
X137884049Y-95414947D02*
X137765001Y-95355423D01*
X137765001Y-95355423D02*
X137645953Y-95355423D01*
X136455477Y-95772090D02*
X135979286Y-95772090D01*
X136276905Y-96605423D02*
X136276905Y-95533995D01*
X136276905Y-95533995D02*
X136217382Y-95414947D01*
X136217382Y-95414947D02*
X136098334Y-95355423D01*
X136098334Y-95355423D02*
X135979286Y-95355423D01*
X135562619Y-96605423D02*
X135562619Y-95772090D01*
X135562619Y-96010185D02*
X135503096Y-95891138D01*
X135503096Y-95891138D02*
X135443572Y-95831614D01*
X135443572Y-95831614D02*
X135324524Y-95772090D01*
X135324524Y-95772090D02*
X135205477Y-95772090D01*
X134312619Y-96545900D02*
X134431667Y-96605423D01*
X134431667Y-96605423D02*
X134669762Y-96605423D01*
X134669762Y-96605423D02*
X134788809Y-96545900D01*
X134788809Y-96545900D02*
X134848333Y-96426852D01*
X134848333Y-96426852D02*
X134848333Y-95950661D01*
X134848333Y-95950661D02*
X134788809Y-95831614D01*
X134788809Y-95831614D02*
X134669762Y-95772090D01*
X134669762Y-95772090D02*
X134431667Y-95772090D01*
X134431667Y-95772090D02*
X134312619Y-95831614D01*
X134312619Y-95831614D02*
X134253095Y-95950661D01*
X134253095Y-95950661D02*
X134253095Y-96069709D01*
X134253095Y-96069709D02*
X134848333Y-96188757D01*
X133241190Y-96545900D02*
X133360238Y-96605423D01*
X133360238Y-96605423D02*
X133598333Y-96605423D01*
X133598333Y-96605423D02*
X133717380Y-96545900D01*
X133717380Y-96545900D02*
X133776904Y-96426852D01*
X133776904Y-96426852D02*
X133776904Y-95950661D01*
X133776904Y-95950661D02*
X133717380Y-95831614D01*
X133717380Y-95831614D02*
X133598333Y-95772090D01*
X133598333Y-95772090D02*
X133360238Y-95772090D01*
X133360238Y-95772090D02*
X133241190Y-95831614D01*
X133241190Y-95831614D02*
X133181666Y-95950661D01*
X133181666Y-95950661D02*
X133181666Y-96069709D01*
X133181666Y-96069709D02*
X133776904Y-96188757D01*
X132110237Y-96605423D02*
X132110237Y-95355423D01*
X132110237Y-96545900D02*
X132229285Y-96605423D01*
X132229285Y-96605423D02*
X132467380Y-96605423D01*
X132467380Y-96605423D02*
X132586428Y-96545900D01*
X132586428Y-96545900D02*
X132645951Y-96486376D01*
X132645951Y-96486376D02*
X132705475Y-96367328D01*
X132705475Y-96367328D02*
X132705475Y-96010185D01*
X132705475Y-96010185D02*
X132645951Y-95891138D01*
X132645951Y-95891138D02*
X132586428Y-95831614D01*
X132586428Y-95831614D02*
X132467380Y-95772090D01*
X132467380Y-95772090D02*
X132229285Y-95772090D01*
X132229285Y-95772090D02*
X132110237Y-95831614D01*
X131336428Y-96605423D02*
X131455476Y-96545900D01*
X131455476Y-96545900D02*
X131514999Y-96486376D01*
X131514999Y-96486376D02*
X131574523Y-96367328D01*
X131574523Y-96367328D02*
X131574523Y-96010185D01*
X131574523Y-96010185D02*
X131514999Y-95891138D01*
X131514999Y-95891138D02*
X131455476Y-95831614D01*
X131455476Y-95831614D02*
X131336428Y-95772090D01*
X131336428Y-95772090D02*
X131157857Y-95772090D01*
X131157857Y-95772090D02*
X131038809Y-95831614D01*
X131038809Y-95831614D02*
X130979285Y-95891138D01*
X130979285Y-95891138D02*
X130919761Y-96010185D01*
X130919761Y-96010185D02*
X130919761Y-96367328D01*
X130919761Y-96367328D02*
X130979285Y-96486376D01*
X130979285Y-96486376D02*
X131038809Y-96545900D01*
X131038809Y-96545900D02*
X131157857Y-96605423D01*
X131157857Y-96605423D02*
X131336428Y-96605423D01*
X130384047Y-96605423D02*
X130384047Y-95772090D01*
X130384047Y-95891138D02*
X130324524Y-95831614D01*
X130324524Y-95831614D02*
X130205476Y-95772090D01*
X130205476Y-95772090D02*
X130026905Y-95772090D01*
X130026905Y-95772090D02*
X129907857Y-95831614D01*
X129907857Y-95831614D02*
X129848333Y-95950661D01*
X129848333Y-95950661D02*
X129848333Y-96605423D01*
X129848333Y-95950661D02*
X129788809Y-95831614D01*
X129788809Y-95831614D02*
X129669762Y-95772090D01*
X129669762Y-95772090D02*
X129491190Y-95772090D01*
X129491190Y-95772090D02*
X129372143Y-95831614D01*
X129372143Y-95831614D02*
X129312619Y-95950661D01*
X129312619Y-95950661D02*
X129312619Y-96605423D01*
X128776904Y-95355423D02*
X128776904Y-95593519D01*
X128300714Y-95355423D02*
X128300714Y-95593519D01*
M02*
