%TF.GenerationSoftware,KiCad,Pcbnew,7.0.6-0*%
%TF.CreationDate,2023-10-04T12:55:05+01:00*%
%TF.ProjectId,NostrZapLamp,4e6f7374-725a-4617-904c-616d702e6b69,rev?*%
%TF.SameCoordinates,Original*%
%TF.FileFunction,Legend,Bot*%
%TF.FilePolarity,Positive*%
%FSLAX46Y46*%
G04 Gerber Fmt 4.6, Leading zero omitted, Abs format (unit mm)*
G04 Created by KiCad (PCBNEW 7.0.6-0) date 2023-10-04 12:55:05*
%MOMM*%
%LPD*%
G01*
G04 APERTURE LIST*
%ADD10C,0.300000*%
%ADD11C,0.000000*%
G04 APERTURE END LIST*
D10*
X143568571Y-75971900D02*
X143390000Y-76031423D01*
X143390000Y-76031423D02*
X143092381Y-76031423D01*
X143092381Y-76031423D02*
X142973333Y-75971900D01*
X142973333Y-75971900D02*
X142913809Y-75912376D01*
X142913809Y-75912376D02*
X142854286Y-75793328D01*
X142854286Y-75793328D02*
X142854286Y-75674280D01*
X142854286Y-75674280D02*
X142913809Y-75555233D01*
X142913809Y-75555233D02*
X142973333Y-75495709D01*
X142973333Y-75495709D02*
X143092381Y-75436185D01*
X143092381Y-75436185D02*
X143330476Y-75376661D01*
X143330476Y-75376661D02*
X143449524Y-75317138D01*
X143449524Y-75317138D02*
X143509047Y-75257614D01*
X143509047Y-75257614D02*
X143568571Y-75138566D01*
X143568571Y-75138566D02*
X143568571Y-75019519D01*
X143568571Y-75019519D02*
X143509047Y-74900471D01*
X143509047Y-74900471D02*
X143449524Y-74840947D01*
X143449524Y-74840947D02*
X143330476Y-74781423D01*
X143330476Y-74781423D02*
X143032857Y-74781423D01*
X143032857Y-74781423D02*
X142854286Y-74840947D01*
X142140000Y-76031423D02*
X142259048Y-75971900D01*
X142259048Y-75971900D02*
X142318571Y-75912376D01*
X142318571Y-75912376D02*
X142378095Y-75793328D01*
X142378095Y-75793328D02*
X142378095Y-75436185D01*
X142378095Y-75436185D02*
X142318571Y-75317138D01*
X142318571Y-75317138D02*
X142259048Y-75257614D01*
X142259048Y-75257614D02*
X142140000Y-75198090D01*
X142140000Y-75198090D02*
X141961429Y-75198090D01*
X141961429Y-75198090D02*
X141842381Y-75257614D01*
X141842381Y-75257614D02*
X141782857Y-75317138D01*
X141782857Y-75317138D02*
X141723333Y-75436185D01*
X141723333Y-75436185D02*
X141723333Y-75793328D01*
X141723333Y-75793328D02*
X141782857Y-75912376D01*
X141782857Y-75912376D02*
X141842381Y-75971900D01*
X141842381Y-75971900D02*
X141961429Y-76031423D01*
X141961429Y-76031423D02*
X142140000Y-76031423D01*
X141009048Y-76031423D02*
X141128096Y-75971900D01*
X141128096Y-75971900D02*
X141187619Y-75852852D01*
X141187619Y-75852852D02*
X141187619Y-74781423D01*
X139997143Y-76031423D02*
X139997143Y-74781423D01*
X139997143Y-75971900D02*
X140116191Y-76031423D01*
X140116191Y-76031423D02*
X140354286Y-76031423D01*
X140354286Y-76031423D02*
X140473334Y-75971900D01*
X140473334Y-75971900D02*
X140532857Y-75912376D01*
X140532857Y-75912376D02*
X140592381Y-75793328D01*
X140592381Y-75793328D02*
X140592381Y-75436185D01*
X140592381Y-75436185D02*
X140532857Y-75317138D01*
X140532857Y-75317138D02*
X140473334Y-75257614D01*
X140473334Y-75257614D02*
X140354286Y-75198090D01*
X140354286Y-75198090D02*
X140116191Y-75198090D01*
X140116191Y-75198090D02*
X139997143Y-75257614D01*
X138925715Y-75971900D02*
X139044763Y-76031423D01*
X139044763Y-76031423D02*
X139282858Y-76031423D01*
X139282858Y-76031423D02*
X139401905Y-75971900D01*
X139401905Y-75971900D02*
X139461429Y-75852852D01*
X139461429Y-75852852D02*
X139461429Y-75376661D01*
X139461429Y-75376661D02*
X139401905Y-75257614D01*
X139401905Y-75257614D02*
X139282858Y-75198090D01*
X139282858Y-75198090D02*
X139044763Y-75198090D01*
X139044763Y-75198090D02*
X138925715Y-75257614D01*
X138925715Y-75257614D02*
X138866191Y-75376661D01*
X138866191Y-75376661D02*
X138866191Y-75495709D01*
X138866191Y-75495709D02*
X139461429Y-75614757D01*
X138330476Y-76031423D02*
X138330476Y-75198090D01*
X138330476Y-75436185D02*
X138270953Y-75317138D01*
X138270953Y-75317138D02*
X138211429Y-75257614D01*
X138211429Y-75257614D02*
X138092381Y-75198090D01*
X138092381Y-75198090D02*
X137973334Y-75198090D01*
X136068571Y-76031423D02*
X136068571Y-75376661D01*
X136068571Y-75376661D02*
X136128095Y-75257614D01*
X136128095Y-75257614D02*
X136247143Y-75198090D01*
X136247143Y-75198090D02*
X136485238Y-75198090D01*
X136485238Y-75198090D02*
X136604285Y-75257614D01*
X136068571Y-75971900D02*
X136187619Y-76031423D01*
X136187619Y-76031423D02*
X136485238Y-76031423D01*
X136485238Y-76031423D02*
X136604285Y-75971900D01*
X136604285Y-75971900D02*
X136663809Y-75852852D01*
X136663809Y-75852852D02*
X136663809Y-75733804D01*
X136663809Y-75733804D02*
X136604285Y-75614757D01*
X136604285Y-75614757D02*
X136485238Y-75555233D01*
X136485238Y-75555233D02*
X136187619Y-75555233D01*
X136187619Y-75555233D02*
X136068571Y-75495709D01*
X135651905Y-75198090D02*
X135175714Y-75198090D01*
X135473333Y-74781423D02*
X135473333Y-75852852D01*
X135473333Y-75852852D02*
X135413810Y-75971900D01*
X135413810Y-75971900D02*
X135294762Y-76031423D01*
X135294762Y-76031423D02*
X135175714Y-76031423D01*
X133270952Y-76031423D02*
X133270952Y-75376661D01*
X133270952Y-75376661D02*
X133330476Y-75257614D01*
X133330476Y-75257614D02*
X133449524Y-75198090D01*
X133449524Y-75198090D02*
X133687619Y-75198090D01*
X133687619Y-75198090D02*
X133806666Y-75257614D01*
X133270952Y-75971900D02*
X133390000Y-76031423D01*
X133390000Y-76031423D02*
X133687619Y-76031423D01*
X133687619Y-76031423D02*
X133806666Y-75971900D01*
X133806666Y-75971900D02*
X133866190Y-75852852D01*
X133866190Y-75852852D02*
X133866190Y-75733804D01*
X133866190Y-75733804D02*
X133806666Y-75614757D01*
X133806666Y-75614757D02*
X133687619Y-75555233D01*
X133687619Y-75555233D02*
X133390000Y-75555233D01*
X133390000Y-75555233D02*
X133270952Y-75495709D01*
X132675714Y-76031423D02*
X132675714Y-75198090D01*
X132675714Y-75436185D02*
X132616191Y-75317138D01*
X132616191Y-75317138D02*
X132556667Y-75257614D01*
X132556667Y-75257614D02*
X132437619Y-75198090D01*
X132437619Y-75198090D02*
X132318572Y-75198090D01*
X131901904Y-76031423D02*
X131901904Y-75198090D01*
X131901904Y-75436185D02*
X131842381Y-75317138D01*
X131842381Y-75317138D02*
X131782857Y-75257614D01*
X131782857Y-75257614D02*
X131663809Y-75198090D01*
X131663809Y-75198090D02*
X131544762Y-75198090D01*
X130949523Y-76031423D02*
X131068571Y-75971900D01*
X131068571Y-75971900D02*
X131128094Y-75912376D01*
X131128094Y-75912376D02*
X131187618Y-75793328D01*
X131187618Y-75793328D02*
X131187618Y-75436185D01*
X131187618Y-75436185D02*
X131128094Y-75317138D01*
X131128094Y-75317138D02*
X131068571Y-75257614D01*
X131068571Y-75257614D02*
X130949523Y-75198090D01*
X130949523Y-75198090D02*
X130770952Y-75198090D01*
X130770952Y-75198090D02*
X130651904Y-75257614D01*
X130651904Y-75257614D02*
X130592380Y-75317138D01*
X130592380Y-75317138D02*
X130532856Y-75436185D01*
X130532856Y-75436185D02*
X130532856Y-75793328D01*
X130532856Y-75793328D02*
X130592380Y-75912376D01*
X130592380Y-75912376D02*
X130651904Y-75971900D01*
X130651904Y-75971900D02*
X130770952Y-76031423D01*
X130770952Y-76031423D02*
X130949523Y-76031423D01*
X130116190Y-75198090D02*
X129878095Y-76031423D01*
X129878095Y-76031423D02*
X129640000Y-75436185D01*
X129640000Y-75436185D02*
X129401904Y-76031423D01*
X129401904Y-76031423D02*
X129163809Y-75198090D01*
X128747142Y-75971900D02*
X128628095Y-76031423D01*
X128628095Y-76031423D02*
X128389999Y-76031423D01*
X128389999Y-76031423D02*
X128270952Y-75971900D01*
X128270952Y-75971900D02*
X128211428Y-75852852D01*
X128211428Y-75852852D02*
X128211428Y-75793328D01*
X128211428Y-75793328D02*
X128270952Y-75674280D01*
X128270952Y-75674280D02*
X128389999Y-75614757D01*
X128389999Y-75614757D02*
X128568571Y-75614757D01*
X128568571Y-75614757D02*
X128687618Y-75555233D01*
X128687618Y-75555233D02*
X128747142Y-75436185D01*
X128747142Y-75436185D02*
X128747142Y-75376661D01*
X128747142Y-75376661D02*
X128687618Y-75257614D01*
X128687618Y-75257614D02*
X128568571Y-75198090D01*
X128568571Y-75198090D02*
X128389999Y-75198090D01*
X128389999Y-75198090D02*
X128270952Y-75257614D01*
D11*
G36*
X126057377Y-74644316D02*
G01*
X126063061Y-74644703D01*
X126068639Y-74645349D01*
X126074110Y-74646252D01*
X126079473Y-74647415D01*
X126084729Y-74648835D01*
X126089879Y-74650513D01*
X126094921Y-74652450D01*
X126099856Y-74654645D01*
X126104684Y-74657098D01*
X126109404Y-74659810D01*
X126114018Y-74662779D01*
X126118525Y-74666007D01*
X126122924Y-74669493D01*
X126127217Y-74673238D01*
X126131402Y-74677241D01*
X126135404Y-74681426D01*
X126139149Y-74685718D01*
X126142635Y-74690118D01*
X126145863Y-74694624D01*
X126148833Y-74699238D01*
X126151544Y-74703959D01*
X126153997Y-74708787D01*
X126156192Y-74713722D01*
X126158129Y-74718764D01*
X126159807Y-74723913D01*
X126161228Y-74729169D01*
X126162390Y-74734533D01*
X126163294Y-74740003D01*
X126163939Y-74745581D01*
X126164327Y-74751266D01*
X126164456Y-74757058D01*
X126164325Y-74762953D01*
X126163932Y-74768731D01*
X126163276Y-74774391D01*
X126162359Y-74779934D01*
X126161180Y-74785361D01*
X126159739Y-74790669D01*
X126158036Y-74795861D01*
X126156070Y-74800935D01*
X126153843Y-74805892D01*
X126151353Y-74810732D01*
X126148602Y-74815454D01*
X126145589Y-74820060D01*
X126142313Y-74824548D01*
X126138775Y-74828918D01*
X126134976Y-74833172D01*
X126130914Y-74837308D01*
X125533831Y-75434391D01*
X127293326Y-75434391D01*
X127299118Y-75434520D01*
X127304803Y-75434907D01*
X127310381Y-75435553D01*
X127315851Y-75436457D01*
X127321215Y-75437619D01*
X127326471Y-75439039D01*
X127331620Y-75440717D01*
X127336662Y-75442654D01*
X127341597Y-75444849D01*
X127346425Y-75447302D01*
X127351146Y-75450014D01*
X127355760Y-75452984D01*
X127360266Y-75456212D01*
X127364666Y-75459698D01*
X127368958Y-75463442D01*
X127373143Y-75467445D01*
X127377146Y-75471630D01*
X127380890Y-75475922D01*
X127384377Y-75480322D01*
X127387604Y-75484828D01*
X127390574Y-75489442D01*
X127393286Y-75494163D01*
X127395739Y-75498991D01*
X127397934Y-75503926D01*
X127399871Y-75508968D01*
X127401549Y-75514117D01*
X127402969Y-75519374D01*
X127404131Y-75524737D01*
X127405035Y-75530207D01*
X127405681Y-75535785D01*
X127406068Y-75541470D01*
X127406197Y-75547262D01*
X127406068Y-75553054D01*
X127405681Y-75558738D01*
X127405035Y-75564316D01*
X127404131Y-75569786D01*
X127402969Y-75575150D01*
X127401549Y-75580406D01*
X127399871Y-75585555D01*
X127397934Y-75590598D01*
X127395739Y-75595533D01*
X127393286Y-75600360D01*
X127390574Y-75605081D01*
X127387604Y-75609695D01*
X127384377Y-75614201D01*
X127380890Y-75618601D01*
X127377146Y-75622893D01*
X127373143Y-75627079D01*
X127368958Y-75631081D01*
X127364666Y-75634826D01*
X127360266Y-75638312D01*
X127355760Y-75641540D01*
X127351146Y-75644509D01*
X127346425Y-75647221D01*
X127341597Y-75649674D01*
X127336662Y-75651869D01*
X127331620Y-75653806D01*
X127326471Y-75655484D01*
X127321215Y-75656905D01*
X127315851Y-75658067D01*
X127310381Y-75658970D01*
X127304803Y-75659616D01*
X127299118Y-75660003D01*
X127293326Y-75660133D01*
X125533831Y-75660133D01*
X126130914Y-76257215D01*
X126134976Y-76261352D01*
X126138775Y-76265605D01*
X126142313Y-76269976D01*
X126145589Y-76274464D01*
X126148602Y-76279069D01*
X126151353Y-76283791D01*
X126153843Y-76288631D01*
X126156070Y-76293588D01*
X126158036Y-76298662D01*
X126159739Y-76303854D01*
X126161180Y-76309163D01*
X126162359Y-76314589D01*
X126163276Y-76320132D01*
X126163932Y-76325793D01*
X126164325Y-76331571D01*
X126164456Y-76337466D01*
X126164327Y-76343258D01*
X126163939Y-76348942D01*
X126163294Y-76354520D01*
X126162390Y-76359990D01*
X126161228Y-76365354D01*
X126159807Y-76370610D01*
X126158129Y-76375759D01*
X126156192Y-76380802D01*
X126153997Y-76385737D01*
X126151544Y-76390564D01*
X126148833Y-76395285D01*
X126145863Y-76399899D01*
X126142635Y-76404406D01*
X126139149Y-76408805D01*
X126135404Y-76413097D01*
X126131402Y-76417283D01*
X126127217Y-76421285D01*
X126122924Y-76425030D01*
X126118525Y-76428516D01*
X126114018Y-76431744D01*
X126109404Y-76434713D01*
X126104684Y-76437425D01*
X126099856Y-76439878D01*
X126094921Y-76442073D01*
X126089879Y-76444010D01*
X126084729Y-76445688D01*
X126079473Y-76447109D01*
X126074110Y-76448271D01*
X126068639Y-76449174D01*
X126063061Y-76449820D01*
X126057377Y-76450207D01*
X126051585Y-76450337D01*
X126045798Y-76450209D01*
X126040113Y-76449827D01*
X126034532Y-76449190D01*
X126029053Y-76448298D01*
X126023678Y-76447151D01*
X126018405Y-76445749D01*
X126013235Y-76444093D01*
X126008168Y-76442182D01*
X126003204Y-76440015D01*
X125998342Y-76437594D01*
X125993584Y-76434918D01*
X125988928Y-76431988D01*
X125984375Y-76428802D01*
X125979925Y-76425362D01*
X125975578Y-76421666D01*
X125971334Y-76417716D01*
X125181130Y-75627512D01*
X125177180Y-75623166D01*
X125173485Y-75618731D01*
X125170044Y-75614207D01*
X125166859Y-75609593D01*
X125163928Y-75604890D01*
X125161252Y-75600098D01*
X125158831Y-75595216D01*
X125156665Y-75590245D01*
X125154754Y-75585185D01*
X125153097Y-75580035D01*
X125151695Y-75574796D01*
X125150549Y-75569468D01*
X125149657Y-75564050D01*
X125149020Y-75558543D01*
X125148637Y-75552947D01*
X125148510Y-75547262D01*
X125148637Y-75541576D01*
X125149020Y-75535980D01*
X125149657Y-75530473D01*
X125150549Y-75525055D01*
X125151695Y-75519727D01*
X125153097Y-75514488D01*
X125154754Y-75509338D01*
X125156665Y-75504278D01*
X125158831Y-75499307D01*
X125161252Y-75494425D01*
X125163928Y-75489633D01*
X125166859Y-75484930D01*
X125170044Y-75480316D01*
X125173485Y-75475792D01*
X125177180Y-75471357D01*
X125181130Y-75467011D01*
X125971334Y-74676807D01*
X125975471Y-74672857D01*
X125979724Y-74669162D01*
X125984095Y-74665721D01*
X125988583Y-74662536D01*
X125993188Y-74659605D01*
X125997910Y-74656929D01*
X126002750Y-74654508D01*
X126007707Y-74652342D01*
X126012781Y-74650430D01*
X126017973Y-74648774D01*
X126023282Y-74647372D01*
X126028708Y-74646225D01*
X126034251Y-74645333D01*
X126039912Y-74644696D01*
X126045690Y-74644314D01*
X126051585Y-74644187D01*
X126057377Y-74644316D01*
G37*
G36*
X145773528Y-74647924D02*
G01*
X145779213Y-74648306D01*
X145784794Y-74648943D01*
X145790273Y-74649835D01*
X145795648Y-74650982D01*
X145800921Y-74652384D01*
X145806091Y-74654040D01*
X145811158Y-74655951D01*
X145816122Y-74658118D01*
X145820984Y-74660539D01*
X145825742Y-74663215D01*
X145830398Y-74666145D01*
X145834951Y-74669331D01*
X145839401Y-74672771D01*
X145843748Y-74676467D01*
X145847992Y-74680417D01*
X146638196Y-75470621D01*
X146642146Y-75474967D01*
X146645841Y-75479402D01*
X146649282Y-75483926D01*
X146652467Y-75488540D01*
X146655398Y-75493243D01*
X146658074Y-75498035D01*
X146660495Y-75502917D01*
X146662661Y-75507888D01*
X146664572Y-75512948D01*
X146666229Y-75518098D01*
X146667631Y-75523337D01*
X146668777Y-75528665D01*
X146669669Y-75534083D01*
X146670306Y-75539590D01*
X146670689Y-75545186D01*
X146670816Y-75550871D01*
X146670689Y-75556557D01*
X146670306Y-75562153D01*
X146669669Y-75567660D01*
X146668777Y-75573078D01*
X146667631Y-75578406D01*
X146666229Y-75583645D01*
X146664572Y-75588795D01*
X146662661Y-75593855D01*
X146660495Y-75598826D01*
X146658074Y-75603708D01*
X146655398Y-75608500D01*
X146652467Y-75613203D01*
X146649282Y-75617817D01*
X146645841Y-75622341D01*
X146642146Y-75626776D01*
X146638196Y-75631122D01*
X145847992Y-76421326D01*
X145843855Y-76425276D01*
X145839602Y-76428971D01*
X145835231Y-76432412D01*
X145830743Y-76435597D01*
X145826138Y-76438528D01*
X145821416Y-76441204D01*
X145816576Y-76443625D01*
X145811619Y-76445791D01*
X145806545Y-76447703D01*
X145801353Y-76449359D01*
X145796044Y-76450761D01*
X145790618Y-76451908D01*
X145785075Y-76452800D01*
X145779414Y-76453437D01*
X145773636Y-76453819D01*
X145767741Y-76453946D01*
X145761949Y-76453817D01*
X145756265Y-76453430D01*
X145750687Y-76452784D01*
X145745216Y-76451881D01*
X145739853Y-76450718D01*
X145734597Y-76449298D01*
X145729447Y-76447620D01*
X145724405Y-76445683D01*
X145719470Y-76443488D01*
X145714642Y-76441035D01*
X145709922Y-76438323D01*
X145705308Y-76435354D01*
X145700801Y-76432126D01*
X145696402Y-76428640D01*
X145692109Y-76424895D01*
X145687924Y-76420892D01*
X145683922Y-76416707D01*
X145680177Y-76412415D01*
X145676691Y-76408015D01*
X145673463Y-76403509D01*
X145670493Y-76398895D01*
X145667782Y-76394174D01*
X145665329Y-76389346D01*
X145663134Y-76384411D01*
X145661197Y-76379369D01*
X145659519Y-76374220D01*
X145658098Y-76368964D01*
X145656936Y-76363600D01*
X145656032Y-76358130D01*
X145655387Y-76352552D01*
X145654999Y-76346867D01*
X145654870Y-76341075D01*
X145655001Y-76335180D01*
X145655394Y-76329402D01*
X145656050Y-76323742D01*
X145656967Y-76318199D01*
X145658146Y-76312772D01*
X145659587Y-76307464D01*
X145661290Y-76302272D01*
X145663256Y-76297198D01*
X145665483Y-76292241D01*
X145667973Y-76287401D01*
X145670724Y-76282679D01*
X145673737Y-76278073D01*
X145677013Y-76273585D01*
X145680551Y-76269215D01*
X145684350Y-76264961D01*
X145688412Y-76260825D01*
X146285495Y-75663742D01*
X144526000Y-75663742D01*
X144520208Y-75663613D01*
X144514523Y-75663226D01*
X144508945Y-75662580D01*
X144503475Y-75661676D01*
X144498111Y-75660514D01*
X144492855Y-75659094D01*
X144487706Y-75657416D01*
X144482664Y-75655479D01*
X144477729Y-75653284D01*
X144472901Y-75650831D01*
X144468180Y-75648119D01*
X144463566Y-75645149D01*
X144459060Y-75641921D01*
X144454660Y-75638435D01*
X144450368Y-75634691D01*
X144446183Y-75630688D01*
X144442180Y-75626503D01*
X144438436Y-75622211D01*
X144434949Y-75617811D01*
X144431722Y-75613305D01*
X144428752Y-75608691D01*
X144426040Y-75603970D01*
X144423587Y-75599142D01*
X144421392Y-75594207D01*
X144419455Y-75589165D01*
X144417777Y-75584016D01*
X144416357Y-75578759D01*
X144415195Y-75573396D01*
X144414291Y-75567926D01*
X144413645Y-75562348D01*
X144413258Y-75556663D01*
X144413129Y-75550871D01*
X144413258Y-75545079D01*
X144413645Y-75539395D01*
X144414291Y-75533817D01*
X144415195Y-75528347D01*
X144416357Y-75522983D01*
X144417777Y-75517727D01*
X144419455Y-75512578D01*
X144421392Y-75507535D01*
X144423587Y-75502600D01*
X144426040Y-75497773D01*
X144428752Y-75493052D01*
X144431722Y-75488438D01*
X144434949Y-75483932D01*
X144438436Y-75479532D01*
X144442180Y-75475240D01*
X144446183Y-75471054D01*
X144450368Y-75467052D01*
X144454660Y-75463307D01*
X144459060Y-75459821D01*
X144463566Y-75456593D01*
X144468180Y-75453624D01*
X144472901Y-75450912D01*
X144477729Y-75448459D01*
X144482664Y-75446264D01*
X144487706Y-75444327D01*
X144492855Y-75442649D01*
X144498111Y-75441228D01*
X144503475Y-75440066D01*
X144508945Y-75439163D01*
X144514523Y-75438517D01*
X144520208Y-75438130D01*
X144526000Y-75438000D01*
X146285495Y-75438000D01*
X145688412Y-74840918D01*
X145684350Y-74836781D01*
X145680551Y-74832528D01*
X145677013Y-74828157D01*
X145673737Y-74823669D01*
X145670724Y-74819064D01*
X145667973Y-74814342D01*
X145665483Y-74809502D01*
X145663256Y-74804545D01*
X145661290Y-74799471D01*
X145659587Y-74794279D01*
X145658146Y-74788970D01*
X145656967Y-74783544D01*
X145656050Y-74778001D01*
X145655394Y-74772340D01*
X145655001Y-74766562D01*
X145654870Y-74760667D01*
X145654999Y-74754875D01*
X145655387Y-74749191D01*
X145656032Y-74743613D01*
X145656936Y-74738143D01*
X145658098Y-74732779D01*
X145659519Y-74727523D01*
X145661197Y-74722374D01*
X145663134Y-74717331D01*
X145665329Y-74712396D01*
X145667782Y-74707569D01*
X145670493Y-74702848D01*
X145673463Y-74698234D01*
X145676691Y-74693727D01*
X145680177Y-74689328D01*
X145683922Y-74685036D01*
X145687924Y-74680850D01*
X145692109Y-74676848D01*
X145696402Y-74673103D01*
X145700801Y-74669617D01*
X145705308Y-74666389D01*
X145709922Y-74663420D01*
X145714642Y-74660708D01*
X145719470Y-74658255D01*
X145724405Y-74656060D01*
X145729447Y-74654123D01*
X145734597Y-74652445D01*
X145739853Y-74651024D01*
X145745216Y-74649862D01*
X145750687Y-74648959D01*
X145756265Y-74648313D01*
X145761949Y-74647926D01*
X145767741Y-74647796D01*
X145773528Y-74647924D01*
G37*
G36*
X145792033Y-102362182D02*
G01*
X145797718Y-102362564D01*
X145803299Y-102363201D01*
X145808778Y-102364093D01*
X145814153Y-102365240D01*
X145819426Y-102366642D01*
X145824596Y-102368298D01*
X145829663Y-102370209D01*
X145834627Y-102372376D01*
X145839489Y-102374797D01*
X145844247Y-102377473D01*
X145848903Y-102380403D01*
X145853456Y-102383589D01*
X145857906Y-102387029D01*
X145862253Y-102390725D01*
X145866497Y-102394675D01*
X146656701Y-103184879D01*
X146660651Y-103189225D01*
X146664346Y-103193660D01*
X146667787Y-103198184D01*
X146670972Y-103202798D01*
X146673903Y-103207501D01*
X146676579Y-103212293D01*
X146679000Y-103217175D01*
X146681166Y-103222146D01*
X146683077Y-103227206D01*
X146684734Y-103232356D01*
X146686136Y-103237595D01*
X146687282Y-103242923D01*
X146688174Y-103248341D01*
X146688811Y-103253848D01*
X146689194Y-103259444D01*
X146689321Y-103265129D01*
X146689194Y-103270815D01*
X146688811Y-103276411D01*
X146688174Y-103281918D01*
X146687282Y-103287336D01*
X146686136Y-103292664D01*
X146684734Y-103297903D01*
X146683077Y-103303053D01*
X146681166Y-103308113D01*
X146679000Y-103313084D01*
X146676579Y-103317966D01*
X146673903Y-103322758D01*
X146670972Y-103327461D01*
X146667787Y-103332075D01*
X146664346Y-103336599D01*
X146660651Y-103341034D01*
X146656701Y-103345380D01*
X145866497Y-104135584D01*
X145862360Y-104139534D01*
X145858107Y-104143229D01*
X145853736Y-104146670D01*
X145849248Y-104149855D01*
X145844643Y-104152786D01*
X145839921Y-104155462D01*
X145835081Y-104157883D01*
X145830124Y-104160049D01*
X145825050Y-104161961D01*
X145819858Y-104163617D01*
X145814549Y-104165019D01*
X145809123Y-104166166D01*
X145803580Y-104167058D01*
X145797919Y-104167695D01*
X145792141Y-104168077D01*
X145786246Y-104168204D01*
X145780454Y-104168075D01*
X145774770Y-104167688D01*
X145769192Y-104167042D01*
X145763721Y-104166139D01*
X145758358Y-104164976D01*
X145753102Y-104163556D01*
X145747952Y-104161878D01*
X145742910Y-104159941D01*
X145737975Y-104157746D01*
X145733147Y-104155293D01*
X145728427Y-104152581D01*
X145723813Y-104149612D01*
X145719306Y-104146384D01*
X145714907Y-104142898D01*
X145710614Y-104139153D01*
X145706429Y-104135150D01*
X145702427Y-104130965D01*
X145698682Y-104126673D01*
X145695196Y-104122273D01*
X145691968Y-104117767D01*
X145688998Y-104113153D01*
X145686287Y-104108432D01*
X145683834Y-104103604D01*
X145681639Y-104098669D01*
X145679702Y-104093627D01*
X145678024Y-104088478D01*
X145676603Y-104083222D01*
X145675441Y-104077858D01*
X145674537Y-104072388D01*
X145673892Y-104066810D01*
X145673504Y-104061125D01*
X145673375Y-104055333D01*
X145673506Y-104049438D01*
X145673899Y-104043660D01*
X145674555Y-104038000D01*
X145675472Y-104032457D01*
X145676651Y-104027030D01*
X145678092Y-104021722D01*
X145679795Y-104016530D01*
X145681761Y-104011456D01*
X145683988Y-104006499D01*
X145686478Y-104001659D01*
X145689229Y-103996937D01*
X145692242Y-103992331D01*
X145695518Y-103987843D01*
X145699056Y-103983473D01*
X145702855Y-103979219D01*
X145706917Y-103975083D01*
X146304000Y-103378000D01*
X144544505Y-103378000D01*
X144538713Y-103377871D01*
X144533028Y-103377484D01*
X144527450Y-103376838D01*
X144521980Y-103375934D01*
X144516616Y-103374772D01*
X144511360Y-103373352D01*
X144506211Y-103371674D01*
X144501169Y-103369737D01*
X144496234Y-103367542D01*
X144491406Y-103365089D01*
X144486685Y-103362377D01*
X144482071Y-103359407D01*
X144477565Y-103356179D01*
X144473165Y-103352693D01*
X144468873Y-103348949D01*
X144464688Y-103344946D01*
X144460685Y-103340761D01*
X144456941Y-103336469D01*
X144453454Y-103332069D01*
X144450227Y-103327563D01*
X144447257Y-103322949D01*
X144444545Y-103318228D01*
X144442092Y-103313400D01*
X144439897Y-103308465D01*
X144437960Y-103303423D01*
X144436282Y-103298274D01*
X144434862Y-103293017D01*
X144433700Y-103287654D01*
X144432796Y-103282184D01*
X144432150Y-103276606D01*
X144431763Y-103270921D01*
X144431634Y-103265129D01*
X144431763Y-103259337D01*
X144432150Y-103253653D01*
X144432796Y-103248075D01*
X144433700Y-103242605D01*
X144434862Y-103237241D01*
X144436282Y-103231985D01*
X144437960Y-103226836D01*
X144439897Y-103221793D01*
X144442092Y-103216858D01*
X144444545Y-103212031D01*
X144447257Y-103207310D01*
X144450227Y-103202696D01*
X144453454Y-103198190D01*
X144456941Y-103193790D01*
X144460685Y-103189498D01*
X144464688Y-103185312D01*
X144468873Y-103181310D01*
X144473165Y-103177565D01*
X144477565Y-103174079D01*
X144482071Y-103170851D01*
X144486685Y-103167882D01*
X144491406Y-103165170D01*
X144496234Y-103162717D01*
X144501169Y-103160522D01*
X144506211Y-103158585D01*
X144511360Y-103156907D01*
X144516616Y-103155486D01*
X144521980Y-103154324D01*
X144527450Y-103153421D01*
X144533028Y-103152775D01*
X144538713Y-103152388D01*
X144544505Y-103152258D01*
X146304000Y-103152258D01*
X145706917Y-102555176D01*
X145702855Y-102551039D01*
X145699056Y-102546786D01*
X145695518Y-102542415D01*
X145692242Y-102537927D01*
X145689229Y-102533322D01*
X145686478Y-102528600D01*
X145683988Y-102523760D01*
X145681761Y-102518803D01*
X145679795Y-102513729D01*
X145678092Y-102508537D01*
X145676651Y-102503228D01*
X145675472Y-102497802D01*
X145674555Y-102492259D01*
X145673899Y-102486598D01*
X145673506Y-102480820D01*
X145673375Y-102474925D01*
X145673504Y-102469133D01*
X145673892Y-102463449D01*
X145674537Y-102457871D01*
X145675441Y-102452401D01*
X145676603Y-102447037D01*
X145678024Y-102441781D01*
X145679702Y-102436632D01*
X145681639Y-102431589D01*
X145683834Y-102426654D01*
X145686287Y-102421827D01*
X145688998Y-102417106D01*
X145691968Y-102412492D01*
X145695196Y-102407985D01*
X145698682Y-102403586D01*
X145702427Y-102399294D01*
X145706429Y-102395108D01*
X145710614Y-102391106D01*
X145714907Y-102387361D01*
X145719306Y-102383875D01*
X145723813Y-102380647D01*
X145728427Y-102377678D01*
X145733147Y-102374966D01*
X145737975Y-102372513D01*
X145742910Y-102370318D01*
X145747952Y-102368381D01*
X145753102Y-102366703D01*
X145758358Y-102365282D01*
X145763721Y-102364120D01*
X145769192Y-102363217D01*
X145774770Y-102362571D01*
X145780454Y-102362184D01*
X145786246Y-102362054D01*
X145792033Y-102362182D01*
G37*
G36*
X125772883Y-107583417D02*
G01*
X125778567Y-107583804D01*
X125784145Y-107584450D01*
X125789616Y-107585353D01*
X125794979Y-107586516D01*
X125800235Y-107587936D01*
X125805385Y-107589614D01*
X125810427Y-107591551D01*
X125815362Y-107593746D01*
X125820190Y-107596199D01*
X125824910Y-107598911D01*
X125829524Y-107601880D01*
X125834031Y-107605108D01*
X125838430Y-107608594D01*
X125842723Y-107612339D01*
X125846908Y-107616342D01*
X125850910Y-107620527D01*
X125854655Y-107624819D01*
X125858141Y-107629219D01*
X125861369Y-107633725D01*
X125864339Y-107638339D01*
X125867050Y-107643060D01*
X125869503Y-107647888D01*
X125871698Y-107652823D01*
X125873635Y-107657865D01*
X125875313Y-107663014D01*
X125876734Y-107668270D01*
X125877896Y-107673634D01*
X125878800Y-107679104D01*
X125879445Y-107684682D01*
X125879833Y-107690367D01*
X125879962Y-107696159D01*
X125879831Y-107702054D01*
X125879438Y-107707832D01*
X125878782Y-107713492D01*
X125877865Y-107719035D01*
X125876686Y-107724462D01*
X125875245Y-107729770D01*
X125873542Y-107734962D01*
X125871576Y-107740036D01*
X125869349Y-107744993D01*
X125866859Y-107749833D01*
X125864108Y-107754555D01*
X125861095Y-107759161D01*
X125857819Y-107763649D01*
X125854281Y-107768019D01*
X125850482Y-107772273D01*
X125846420Y-107776409D01*
X125249337Y-108373492D01*
X127008832Y-108373492D01*
X127014624Y-108373621D01*
X127020309Y-108374008D01*
X127025887Y-108374654D01*
X127031357Y-108375558D01*
X127036721Y-108376720D01*
X127041977Y-108378140D01*
X127047126Y-108379818D01*
X127052168Y-108381755D01*
X127057103Y-108383950D01*
X127061931Y-108386403D01*
X127066652Y-108389115D01*
X127071266Y-108392085D01*
X127075772Y-108395313D01*
X127080172Y-108398799D01*
X127084464Y-108402543D01*
X127088649Y-108406546D01*
X127092652Y-108410731D01*
X127096396Y-108415023D01*
X127099883Y-108419423D01*
X127103110Y-108423929D01*
X127106080Y-108428543D01*
X127108792Y-108433264D01*
X127111245Y-108438092D01*
X127113440Y-108443027D01*
X127115377Y-108448069D01*
X127117055Y-108453218D01*
X127118475Y-108458475D01*
X127119637Y-108463838D01*
X127120541Y-108469308D01*
X127121187Y-108474886D01*
X127121574Y-108480571D01*
X127121703Y-108486363D01*
X127121574Y-108492155D01*
X127121187Y-108497839D01*
X127120541Y-108503417D01*
X127119637Y-108508887D01*
X127118475Y-108514251D01*
X127117055Y-108519507D01*
X127115377Y-108524656D01*
X127113440Y-108529699D01*
X127111245Y-108534634D01*
X127108792Y-108539461D01*
X127106080Y-108544182D01*
X127103110Y-108548796D01*
X127099883Y-108553302D01*
X127096396Y-108557702D01*
X127092652Y-108561994D01*
X127088649Y-108566180D01*
X127084464Y-108570182D01*
X127080172Y-108573927D01*
X127075772Y-108577413D01*
X127071266Y-108580641D01*
X127066652Y-108583610D01*
X127061931Y-108586322D01*
X127057103Y-108588775D01*
X127052168Y-108590970D01*
X127047126Y-108592907D01*
X127041977Y-108594585D01*
X127036721Y-108596006D01*
X127031357Y-108597168D01*
X127025887Y-108598071D01*
X127020309Y-108598717D01*
X127014624Y-108599104D01*
X127008832Y-108599234D01*
X125249337Y-108599234D01*
X125846420Y-109196316D01*
X125850482Y-109200453D01*
X125854281Y-109204706D01*
X125857819Y-109209077D01*
X125861095Y-109213565D01*
X125864108Y-109218170D01*
X125866859Y-109222892D01*
X125869349Y-109227732D01*
X125871576Y-109232689D01*
X125873542Y-109237763D01*
X125875245Y-109242955D01*
X125876686Y-109248264D01*
X125877865Y-109253690D01*
X125878782Y-109259233D01*
X125879438Y-109264894D01*
X125879831Y-109270672D01*
X125879962Y-109276567D01*
X125879833Y-109282359D01*
X125879445Y-109288043D01*
X125878800Y-109293621D01*
X125877896Y-109299091D01*
X125876734Y-109304455D01*
X125875313Y-109309711D01*
X125873635Y-109314860D01*
X125871698Y-109319903D01*
X125869503Y-109324838D01*
X125867050Y-109329665D01*
X125864339Y-109334386D01*
X125861369Y-109339000D01*
X125858141Y-109343507D01*
X125854655Y-109347906D01*
X125850910Y-109352198D01*
X125846908Y-109356384D01*
X125842723Y-109360386D01*
X125838430Y-109364131D01*
X125834031Y-109367617D01*
X125829524Y-109370845D01*
X125824910Y-109373814D01*
X125820190Y-109376526D01*
X125815362Y-109378979D01*
X125810427Y-109381174D01*
X125805385Y-109383111D01*
X125800235Y-109384789D01*
X125794979Y-109386210D01*
X125789616Y-109387372D01*
X125784145Y-109388275D01*
X125778567Y-109388921D01*
X125772883Y-109389308D01*
X125767091Y-109389438D01*
X125761304Y-109389310D01*
X125755619Y-109388928D01*
X125750038Y-109388291D01*
X125744559Y-109387399D01*
X125739184Y-109386252D01*
X125733911Y-109384850D01*
X125728741Y-109383194D01*
X125723674Y-109381283D01*
X125718710Y-109379116D01*
X125713848Y-109376695D01*
X125709090Y-109374019D01*
X125704434Y-109371089D01*
X125699881Y-109367903D01*
X125695431Y-109364463D01*
X125691084Y-109360767D01*
X125686840Y-109356817D01*
X124896636Y-108566613D01*
X124892686Y-108562267D01*
X124888991Y-108557832D01*
X124885550Y-108553308D01*
X124882365Y-108548694D01*
X124879434Y-108543991D01*
X124876758Y-108539199D01*
X124874337Y-108534317D01*
X124872171Y-108529346D01*
X124870260Y-108524286D01*
X124868603Y-108519136D01*
X124867201Y-108513897D01*
X124866055Y-108508569D01*
X124865163Y-108503151D01*
X124864526Y-108497644D01*
X124864143Y-108492048D01*
X124864016Y-108486363D01*
X124864143Y-108480677D01*
X124864526Y-108475081D01*
X124865163Y-108469574D01*
X124866055Y-108464156D01*
X124867201Y-108458828D01*
X124868603Y-108453589D01*
X124870260Y-108448439D01*
X124872171Y-108443379D01*
X124874337Y-108438408D01*
X124876758Y-108433526D01*
X124879434Y-108428734D01*
X124882365Y-108424031D01*
X124885550Y-108419417D01*
X124888991Y-108414893D01*
X124892686Y-108410458D01*
X124896636Y-108406112D01*
X125686840Y-107615908D01*
X125690977Y-107611958D01*
X125695230Y-107608263D01*
X125699601Y-107604822D01*
X125704089Y-107601637D01*
X125708694Y-107598706D01*
X125713416Y-107596030D01*
X125718256Y-107593609D01*
X125723213Y-107591443D01*
X125728287Y-107589531D01*
X125733479Y-107587875D01*
X125738788Y-107586473D01*
X125744214Y-107585326D01*
X125749757Y-107584434D01*
X125755418Y-107583797D01*
X125761196Y-107583415D01*
X125767091Y-107583288D01*
X125772883Y-107583417D01*
G37*
G36*
X146046033Y-107442182D02*
G01*
X146051718Y-107442564D01*
X146057299Y-107443201D01*
X146062778Y-107444093D01*
X146068153Y-107445240D01*
X146073426Y-107446642D01*
X146078596Y-107448298D01*
X146083663Y-107450209D01*
X146088627Y-107452376D01*
X146093489Y-107454797D01*
X146098247Y-107457473D01*
X146102903Y-107460403D01*
X146107456Y-107463589D01*
X146111906Y-107467029D01*
X146116253Y-107470725D01*
X146120497Y-107474675D01*
X146910701Y-108264879D01*
X146914651Y-108269225D01*
X146918346Y-108273660D01*
X146921787Y-108278184D01*
X146924972Y-108282798D01*
X146927903Y-108287501D01*
X146930579Y-108292293D01*
X146933000Y-108297175D01*
X146935166Y-108302146D01*
X146937077Y-108307206D01*
X146938734Y-108312356D01*
X146940136Y-108317595D01*
X146941282Y-108322923D01*
X146942174Y-108328341D01*
X146942811Y-108333848D01*
X146943194Y-108339444D01*
X146943321Y-108345129D01*
X146943194Y-108350815D01*
X146942811Y-108356411D01*
X146942174Y-108361918D01*
X146941282Y-108367336D01*
X146940136Y-108372664D01*
X146938734Y-108377903D01*
X146937077Y-108383053D01*
X146935166Y-108388113D01*
X146933000Y-108393084D01*
X146930579Y-108397966D01*
X146927903Y-108402758D01*
X146924972Y-108407461D01*
X146921787Y-108412075D01*
X146918346Y-108416599D01*
X146914651Y-108421034D01*
X146910701Y-108425380D01*
X146120497Y-109215584D01*
X146116360Y-109219534D01*
X146112107Y-109223229D01*
X146107736Y-109226670D01*
X146103248Y-109229855D01*
X146098643Y-109232786D01*
X146093921Y-109235462D01*
X146089081Y-109237883D01*
X146084124Y-109240049D01*
X146079050Y-109241961D01*
X146073858Y-109243617D01*
X146068549Y-109245019D01*
X146063123Y-109246166D01*
X146057580Y-109247058D01*
X146051919Y-109247695D01*
X146046141Y-109248077D01*
X146040246Y-109248204D01*
X146034454Y-109248075D01*
X146028770Y-109247688D01*
X146023192Y-109247042D01*
X146017721Y-109246139D01*
X146012358Y-109244976D01*
X146007102Y-109243556D01*
X146001952Y-109241878D01*
X145996910Y-109239941D01*
X145991975Y-109237746D01*
X145987147Y-109235293D01*
X145982427Y-109232581D01*
X145977813Y-109229612D01*
X145973306Y-109226384D01*
X145968907Y-109222898D01*
X145964614Y-109219153D01*
X145960429Y-109215150D01*
X145956427Y-109210965D01*
X145952682Y-109206673D01*
X145949196Y-109202273D01*
X145945968Y-109197767D01*
X145942998Y-109193153D01*
X145940287Y-109188432D01*
X145937834Y-109183604D01*
X145935639Y-109178669D01*
X145933702Y-109173627D01*
X145932024Y-109168478D01*
X145930603Y-109163222D01*
X145929441Y-109157858D01*
X145928537Y-109152388D01*
X145927892Y-109146810D01*
X145927504Y-109141125D01*
X145927375Y-109135333D01*
X145927506Y-109129438D01*
X145927899Y-109123660D01*
X145928555Y-109118000D01*
X145929472Y-109112457D01*
X145930651Y-109107030D01*
X145932092Y-109101722D01*
X145933795Y-109096530D01*
X145935761Y-109091456D01*
X145937988Y-109086499D01*
X145940478Y-109081659D01*
X145943229Y-109076937D01*
X145946242Y-109072331D01*
X145949518Y-109067843D01*
X145953056Y-109063473D01*
X145956855Y-109059219D01*
X145960917Y-109055083D01*
X146558000Y-108458000D01*
X144798505Y-108458000D01*
X144792713Y-108457871D01*
X144787028Y-108457484D01*
X144781450Y-108456838D01*
X144775980Y-108455934D01*
X144770616Y-108454772D01*
X144765360Y-108453352D01*
X144760211Y-108451674D01*
X144755169Y-108449737D01*
X144750234Y-108447542D01*
X144745406Y-108445089D01*
X144740685Y-108442377D01*
X144736071Y-108439407D01*
X144731565Y-108436179D01*
X144727165Y-108432693D01*
X144722873Y-108428949D01*
X144718688Y-108424946D01*
X144714685Y-108420761D01*
X144710941Y-108416469D01*
X144707454Y-108412069D01*
X144704227Y-108407563D01*
X144701257Y-108402949D01*
X144698545Y-108398228D01*
X144696092Y-108393400D01*
X144693897Y-108388465D01*
X144691960Y-108383423D01*
X144690282Y-108378274D01*
X144688862Y-108373017D01*
X144687700Y-108367654D01*
X144686796Y-108362184D01*
X144686150Y-108356606D01*
X144685763Y-108350921D01*
X144685634Y-108345129D01*
X144685763Y-108339337D01*
X144686150Y-108333653D01*
X144686796Y-108328075D01*
X144687700Y-108322605D01*
X144688862Y-108317241D01*
X144690282Y-108311985D01*
X144691960Y-108306836D01*
X144693897Y-108301793D01*
X144696092Y-108296858D01*
X144698545Y-108292031D01*
X144701257Y-108287310D01*
X144704227Y-108282696D01*
X144707454Y-108278190D01*
X144710941Y-108273790D01*
X144714685Y-108269498D01*
X144718688Y-108265312D01*
X144722873Y-108261310D01*
X144727165Y-108257565D01*
X144731565Y-108254079D01*
X144736071Y-108250851D01*
X144740685Y-108247882D01*
X144745406Y-108245170D01*
X144750234Y-108242717D01*
X144755169Y-108240522D01*
X144760211Y-108238585D01*
X144765360Y-108236907D01*
X144770616Y-108235486D01*
X144775980Y-108234324D01*
X144781450Y-108233421D01*
X144787028Y-108232775D01*
X144792713Y-108232388D01*
X144798505Y-108232258D01*
X146558000Y-108232258D01*
X145960917Y-107635176D01*
X145956855Y-107631039D01*
X145953056Y-107626786D01*
X145949518Y-107622415D01*
X145946242Y-107617927D01*
X145943229Y-107613322D01*
X145940478Y-107608600D01*
X145937988Y-107603760D01*
X145935761Y-107598803D01*
X145933795Y-107593729D01*
X145932092Y-107588537D01*
X145930651Y-107583228D01*
X145929472Y-107577802D01*
X145928555Y-107572259D01*
X145927899Y-107566598D01*
X145927506Y-107560820D01*
X145927375Y-107554925D01*
X145927504Y-107549133D01*
X145927892Y-107543449D01*
X145928537Y-107537871D01*
X145929441Y-107532401D01*
X145930603Y-107527037D01*
X145932024Y-107521781D01*
X145933702Y-107516632D01*
X145935639Y-107511589D01*
X145937834Y-107506654D01*
X145940287Y-107501827D01*
X145942998Y-107497106D01*
X145945968Y-107492492D01*
X145949196Y-107487985D01*
X145952682Y-107483586D01*
X145956427Y-107479294D01*
X145960429Y-107475108D01*
X145964614Y-107471106D01*
X145968907Y-107467361D01*
X145973306Y-107463875D01*
X145977813Y-107460647D01*
X145982427Y-107457678D01*
X145987147Y-107454966D01*
X145991975Y-107452513D01*
X145996910Y-107450318D01*
X146001952Y-107448381D01*
X146007102Y-107446703D01*
X146012358Y-107445282D01*
X146017721Y-107444120D01*
X146023192Y-107443217D01*
X146028770Y-107442571D01*
X146034454Y-107442184D01*
X146040246Y-107442054D01*
X146046033Y-107442182D01*
G37*
G36*
X145754941Y-99935107D02*
G01*
X145760626Y-99935489D01*
X145766207Y-99936126D01*
X145771686Y-99937018D01*
X145777061Y-99938165D01*
X145782334Y-99939567D01*
X145787504Y-99941223D01*
X145792571Y-99943134D01*
X145797535Y-99945301D01*
X145802397Y-99947722D01*
X145807155Y-99950398D01*
X145811811Y-99953328D01*
X145816364Y-99956514D01*
X145820814Y-99959954D01*
X145825161Y-99963650D01*
X145829405Y-99967600D01*
X146619609Y-100757804D01*
X146623559Y-100762150D01*
X146627254Y-100766585D01*
X146630695Y-100771109D01*
X146633880Y-100775723D01*
X146636811Y-100780426D01*
X146639487Y-100785218D01*
X146641908Y-100790100D01*
X146644074Y-100795071D01*
X146645985Y-100800131D01*
X146647642Y-100805281D01*
X146649044Y-100810520D01*
X146650190Y-100815848D01*
X146651082Y-100821266D01*
X146651719Y-100826773D01*
X146652102Y-100832369D01*
X146652229Y-100838054D01*
X146652102Y-100843740D01*
X146651719Y-100849336D01*
X146651082Y-100854843D01*
X146650190Y-100860261D01*
X146649044Y-100865589D01*
X146647642Y-100870828D01*
X146645985Y-100875978D01*
X146644074Y-100881038D01*
X146641908Y-100886009D01*
X146639487Y-100890891D01*
X146636811Y-100895683D01*
X146633880Y-100900386D01*
X146630695Y-100905000D01*
X146627254Y-100909524D01*
X146623559Y-100913959D01*
X146619609Y-100918305D01*
X145829405Y-101708509D01*
X145825268Y-101712459D01*
X145821015Y-101716154D01*
X145816644Y-101719595D01*
X145812156Y-101722780D01*
X145807551Y-101725711D01*
X145802829Y-101728387D01*
X145797989Y-101730808D01*
X145793032Y-101732974D01*
X145787958Y-101734886D01*
X145782766Y-101736542D01*
X145777457Y-101737944D01*
X145772031Y-101739091D01*
X145766488Y-101739983D01*
X145760827Y-101740620D01*
X145755049Y-101741002D01*
X145749154Y-101741129D01*
X145743362Y-101741000D01*
X145737678Y-101740613D01*
X145732100Y-101739967D01*
X145726629Y-101739064D01*
X145721266Y-101737901D01*
X145716010Y-101736481D01*
X145710860Y-101734803D01*
X145705818Y-101732866D01*
X145700883Y-101730671D01*
X145696055Y-101728218D01*
X145691335Y-101725506D01*
X145686721Y-101722537D01*
X145682214Y-101719309D01*
X145677815Y-101715823D01*
X145673522Y-101712078D01*
X145669337Y-101708075D01*
X145665335Y-101703890D01*
X145661590Y-101699598D01*
X145658104Y-101695198D01*
X145654876Y-101690692D01*
X145651906Y-101686078D01*
X145649195Y-101681357D01*
X145646742Y-101676529D01*
X145644547Y-101671594D01*
X145642610Y-101666552D01*
X145640932Y-101661403D01*
X145639511Y-101656147D01*
X145638349Y-101650783D01*
X145637445Y-101645313D01*
X145636800Y-101639735D01*
X145636412Y-101634050D01*
X145636283Y-101628258D01*
X145636414Y-101622363D01*
X145636807Y-101616585D01*
X145637463Y-101610925D01*
X145638380Y-101605382D01*
X145639559Y-101599955D01*
X145641000Y-101594647D01*
X145642703Y-101589455D01*
X145644669Y-101584381D01*
X145646896Y-101579424D01*
X145649386Y-101574584D01*
X145652137Y-101569862D01*
X145655150Y-101565256D01*
X145658426Y-101560768D01*
X145661964Y-101556398D01*
X145665763Y-101552144D01*
X145669825Y-101548008D01*
X146266908Y-100950925D01*
X144507413Y-100950925D01*
X144501621Y-100950796D01*
X144495936Y-100950409D01*
X144490358Y-100949763D01*
X144484888Y-100948859D01*
X144479524Y-100947697D01*
X144474268Y-100946277D01*
X144469119Y-100944599D01*
X144464077Y-100942662D01*
X144459142Y-100940467D01*
X144454314Y-100938014D01*
X144449593Y-100935302D01*
X144444979Y-100932332D01*
X144440473Y-100929104D01*
X144436073Y-100925618D01*
X144431781Y-100921874D01*
X144427596Y-100917871D01*
X144423593Y-100913686D01*
X144419849Y-100909394D01*
X144416362Y-100904994D01*
X144413135Y-100900488D01*
X144410165Y-100895874D01*
X144407453Y-100891153D01*
X144405000Y-100886325D01*
X144402805Y-100881390D01*
X144400868Y-100876348D01*
X144399190Y-100871199D01*
X144397770Y-100865942D01*
X144396608Y-100860579D01*
X144395704Y-100855109D01*
X144395058Y-100849531D01*
X144394671Y-100843846D01*
X144394542Y-100838054D01*
X144394671Y-100832262D01*
X144395058Y-100826578D01*
X144395704Y-100821000D01*
X144396608Y-100815530D01*
X144397770Y-100810166D01*
X144399190Y-100804910D01*
X144400868Y-100799761D01*
X144402805Y-100794718D01*
X144405000Y-100789783D01*
X144407453Y-100784956D01*
X144410165Y-100780235D01*
X144413135Y-100775621D01*
X144416362Y-100771115D01*
X144419849Y-100766715D01*
X144423593Y-100762423D01*
X144427596Y-100758237D01*
X144431781Y-100754235D01*
X144436073Y-100750490D01*
X144440473Y-100747004D01*
X144444979Y-100743776D01*
X144449593Y-100740807D01*
X144454314Y-100738095D01*
X144459142Y-100735642D01*
X144464077Y-100733447D01*
X144469119Y-100731510D01*
X144474268Y-100729832D01*
X144479524Y-100728411D01*
X144484888Y-100727249D01*
X144490358Y-100726346D01*
X144495936Y-100725700D01*
X144501621Y-100725313D01*
X144507413Y-100725183D01*
X146266908Y-100725183D01*
X145669825Y-100128101D01*
X145665763Y-100123964D01*
X145661964Y-100119711D01*
X145658426Y-100115340D01*
X145655150Y-100110852D01*
X145652137Y-100106247D01*
X145649386Y-100101525D01*
X145646896Y-100096685D01*
X145644669Y-100091728D01*
X145642703Y-100086654D01*
X145641000Y-100081462D01*
X145639559Y-100076153D01*
X145638380Y-100070727D01*
X145637463Y-100065184D01*
X145636807Y-100059523D01*
X145636414Y-100053745D01*
X145636283Y-100047850D01*
X145636412Y-100042058D01*
X145636800Y-100036374D01*
X145637445Y-100030796D01*
X145638349Y-100025326D01*
X145639511Y-100019962D01*
X145640932Y-100014706D01*
X145642610Y-100009557D01*
X145644547Y-100004514D01*
X145646742Y-99999579D01*
X145649195Y-99994752D01*
X145651906Y-99990031D01*
X145654876Y-99985417D01*
X145658104Y-99980910D01*
X145661590Y-99976511D01*
X145665335Y-99972219D01*
X145669337Y-99968033D01*
X145673522Y-99964031D01*
X145677815Y-99960286D01*
X145682214Y-99956800D01*
X145686721Y-99953572D01*
X145691335Y-99950603D01*
X145696055Y-99947891D01*
X145700883Y-99945438D01*
X145705818Y-99943243D01*
X145710860Y-99941306D01*
X145716010Y-99939628D01*
X145721266Y-99938207D01*
X145726629Y-99937045D01*
X145732100Y-99936142D01*
X145737678Y-99935496D01*
X145743362Y-99935109D01*
X145749154Y-99934979D01*
X145754941Y-99935107D01*
G37*
D10*
X147050714Y-93342923D02*
X147050714Y-93581019D01*
X146574524Y-93342923D02*
X146574524Y-93581019D01*
X146038809Y-94592923D02*
X146038809Y-93342923D01*
X146038809Y-93342923D02*
X145324524Y-94592923D01*
X145324524Y-94592923D02*
X145324524Y-93342923D01*
X144550714Y-94592923D02*
X144669762Y-94533400D01*
X144669762Y-94533400D02*
X144729285Y-94473876D01*
X144729285Y-94473876D02*
X144788809Y-94354828D01*
X144788809Y-94354828D02*
X144788809Y-93997685D01*
X144788809Y-93997685D02*
X144729285Y-93878638D01*
X144729285Y-93878638D02*
X144669762Y-93819114D01*
X144669762Y-93819114D02*
X144550714Y-93759590D01*
X144550714Y-93759590D02*
X144372143Y-93759590D01*
X144372143Y-93759590D02*
X144253095Y-93819114D01*
X144253095Y-93819114D02*
X144193571Y-93878638D01*
X144193571Y-93878638D02*
X144134047Y-93997685D01*
X144134047Y-93997685D02*
X144134047Y-94354828D01*
X144134047Y-94354828D02*
X144193571Y-94473876D01*
X144193571Y-94473876D02*
X144253095Y-94533400D01*
X144253095Y-94533400D02*
X144372143Y-94592923D01*
X144372143Y-94592923D02*
X144550714Y-94592923D01*
X143657857Y-94533400D02*
X143538810Y-94592923D01*
X143538810Y-94592923D02*
X143300714Y-94592923D01*
X143300714Y-94592923D02*
X143181667Y-94533400D01*
X143181667Y-94533400D02*
X143122143Y-94414352D01*
X143122143Y-94414352D02*
X143122143Y-94354828D01*
X143122143Y-94354828D02*
X143181667Y-94235780D01*
X143181667Y-94235780D02*
X143300714Y-94176257D01*
X143300714Y-94176257D02*
X143479286Y-94176257D01*
X143479286Y-94176257D02*
X143598333Y-94116733D01*
X143598333Y-94116733D02*
X143657857Y-93997685D01*
X143657857Y-93997685D02*
X143657857Y-93938161D01*
X143657857Y-93938161D02*
X143598333Y-93819114D01*
X143598333Y-93819114D02*
X143479286Y-93759590D01*
X143479286Y-93759590D02*
X143300714Y-93759590D01*
X143300714Y-93759590D02*
X143181667Y-93819114D01*
X142765000Y-93759590D02*
X142288809Y-93759590D01*
X142586428Y-93342923D02*
X142586428Y-94414352D01*
X142586428Y-94414352D02*
X142526905Y-94533400D01*
X142526905Y-94533400D02*
X142407857Y-94592923D01*
X142407857Y-94592923D02*
X142288809Y-94592923D01*
X141872142Y-94592923D02*
X141872142Y-93759590D01*
X141872142Y-93997685D02*
X141812619Y-93878638D01*
X141812619Y-93878638D02*
X141753095Y-93819114D01*
X141753095Y-93819114D02*
X141634047Y-93759590D01*
X141634047Y-93759590D02*
X141515000Y-93759590D01*
X140145951Y-94592923D02*
X140145951Y-93759590D01*
X140145951Y-93342923D02*
X140205475Y-93402447D01*
X140205475Y-93402447D02*
X140145951Y-93461971D01*
X140145951Y-93461971D02*
X140086428Y-93402447D01*
X140086428Y-93402447D02*
X140145951Y-93342923D01*
X140145951Y-93342923D02*
X140145951Y-93461971D01*
X139610237Y-94533400D02*
X139491190Y-94592923D01*
X139491190Y-94592923D02*
X139253094Y-94592923D01*
X139253094Y-94592923D02*
X139134047Y-94533400D01*
X139134047Y-94533400D02*
X139074523Y-94414352D01*
X139074523Y-94414352D02*
X139074523Y-94354828D01*
X139074523Y-94354828D02*
X139134047Y-94235780D01*
X139134047Y-94235780D02*
X139253094Y-94176257D01*
X139253094Y-94176257D02*
X139431666Y-94176257D01*
X139431666Y-94176257D02*
X139550713Y-94116733D01*
X139550713Y-94116733D02*
X139610237Y-93997685D01*
X139610237Y-93997685D02*
X139610237Y-93938161D01*
X139610237Y-93938161D02*
X139550713Y-93819114D01*
X139550713Y-93819114D02*
X139431666Y-93759590D01*
X139431666Y-93759590D02*
X139253094Y-93759590D01*
X139253094Y-93759590D02*
X139134047Y-93819114D01*
X137764999Y-93759590D02*
X137288808Y-93759590D01*
X137586427Y-93342923D02*
X137586427Y-94414352D01*
X137586427Y-94414352D02*
X137526904Y-94533400D01*
X137526904Y-94533400D02*
X137407856Y-94592923D01*
X137407856Y-94592923D02*
X137288808Y-94592923D01*
X136872141Y-94592923D02*
X136872141Y-93342923D01*
X136336427Y-94592923D02*
X136336427Y-93938161D01*
X136336427Y-93938161D02*
X136395951Y-93819114D01*
X136395951Y-93819114D02*
X136514999Y-93759590D01*
X136514999Y-93759590D02*
X136693570Y-93759590D01*
X136693570Y-93759590D02*
X136812618Y-93819114D01*
X136812618Y-93819114D02*
X136872141Y-93878638D01*
X135264999Y-94533400D02*
X135384047Y-94592923D01*
X135384047Y-94592923D02*
X135622142Y-94592923D01*
X135622142Y-94592923D02*
X135741189Y-94533400D01*
X135741189Y-94533400D02*
X135800713Y-94414352D01*
X135800713Y-94414352D02*
X135800713Y-93938161D01*
X135800713Y-93938161D02*
X135741189Y-93819114D01*
X135741189Y-93819114D02*
X135622142Y-93759590D01*
X135622142Y-93759590D02*
X135384047Y-93759590D01*
X135384047Y-93759590D02*
X135264999Y-93819114D01*
X135264999Y-93819114D02*
X135205475Y-93938161D01*
X135205475Y-93938161D02*
X135205475Y-94057209D01*
X135205475Y-94057209D02*
X135800713Y-94176257D01*
X133241189Y-94533400D02*
X133360237Y-94592923D01*
X133360237Y-94592923D02*
X133598332Y-94592923D01*
X133598332Y-94592923D02*
X133717379Y-94533400D01*
X133717379Y-94533400D02*
X133776903Y-94414352D01*
X133776903Y-94414352D02*
X133776903Y-93938161D01*
X133776903Y-93938161D02*
X133717379Y-93819114D01*
X133717379Y-93819114D02*
X133598332Y-93759590D01*
X133598332Y-93759590D02*
X133360237Y-93759590D01*
X133360237Y-93759590D02*
X133241189Y-93819114D01*
X133241189Y-93819114D02*
X133181665Y-93938161D01*
X133181665Y-93938161D02*
X133181665Y-94057209D01*
X133181665Y-94057209D02*
X133776903Y-94176257D01*
X132764998Y-93759590D02*
X132467379Y-94592923D01*
X132467379Y-94592923D02*
X132169760Y-93759590D01*
X131217379Y-94533400D02*
X131336427Y-94592923D01*
X131336427Y-94592923D02*
X131574522Y-94592923D01*
X131574522Y-94592923D02*
X131693569Y-94533400D01*
X131693569Y-94533400D02*
X131753093Y-94414352D01*
X131753093Y-94414352D02*
X131753093Y-93938161D01*
X131753093Y-93938161D02*
X131693569Y-93819114D01*
X131693569Y-93819114D02*
X131574522Y-93759590D01*
X131574522Y-93759590D02*
X131336427Y-93759590D01*
X131336427Y-93759590D02*
X131217379Y-93819114D01*
X131217379Y-93819114D02*
X131157855Y-93938161D01*
X131157855Y-93938161D02*
X131157855Y-94057209D01*
X131157855Y-94057209D02*
X131753093Y-94176257D01*
X130622140Y-94592923D02*
X130622140Y-93759590D01*
X130622140Y-93997685D02*
X130562617Y-93878638D01*
X130562617Y-93878638D02*
X130503093Y-93819114D01*
X130503093Y-93819114D02*
X130384045Y-93759590D01*
X130384045Y-93759590D02*
X130264998Y-93759590D01*
X129967378Y-93759590D02*
X129669759Y-94592923D01*
X129372140Y-93759590D02*
X129669759Y-94592923D01*
X129669759Y-94592923D02*
X129788807Y-94890542D01*
X129788807Y-94890542D02*
X129848330Y-94950066D01*
X129848330Y-94950066D02*
X129967378Y-95009590D01*
X129074521Y-93759590D02*
X128598330Y-93759590D01*
X128895949Y-93342923D02*
X128895949Y-94414352D01*
X128895949Y-94414352D02*
X128836426Y-94533400D01*
X128836426Y-94533400D02*
X128717378Y-94592923D01*
X128717378Y-94592923D02*
X128598330Y-94592923D01*
X128181663Y-94592923D02*
X128181663Y-93342923D01*
X127645949Y-94592923D02*
X127645949Y-93938161D01*
X127645949Y-93938161D02*
X127705473Y-93819114D01*
X127705473Y-93819114D02*
X127824521Y-93759590D01*
X127824521Y-93759590D02*
X128003092Y-93759590D01*
X128003092Y-93759590D02*
X128122140Y-93819114D01*
X128122140Y-93819114D02*
X128181663Y-93878638D01*
X127050711Y-94592923D02*
X127050711Y-93759590D01*
X127050711Y-93342923D02*
X127110235Y-93402447D01*
X127110235Y-93402447D02*
X127050711Y-93461971D01*
X127050711Y-93461971D02*
X126991188Y-93402447D01*
X126991188Y-93402447D02*
X127050711Y-93342923D01*
X127050711Y-93342923D02*
X127050711Y-93461971D01*
X126455473Y-93759590D02*
X126455473Y-94592923D01*
X126455473Y-93878638D02*
X126395950Y-93819114D01*
X126395950Y-93819114D02*
X126276902Y-93759590D01*
X126276902Y-93759590D02*
X126098331Y-93759590D01*
X126098331Y-93759590D02*
X125979283Y-93819114D01*
X125979283Y-93819114D02*
X125919759Y-93938161D01*
X125919759Y-93938161D02*
X125919759Y-94592923D01*
X124788807Y-93759590D02*
X124788807Y-94771495D01*
X124788807Y-94771495D02*
X124848331Y-94890542D01*
X124848331Y-94890542D02*
X124907855Y-94950066D01*
X124907855Y-94950066D02*
X125026902Y-95009590D01*
X125026902Y-95009590D02*
X125205474Y-95009590D01*
X125205474Y-95009590D02*
X125324521Y-94950066D01*
X124788807Y-94533400D02*
X124907855Y-94592923D01*
X124907855Y-94592923D02*
X125145950Y-94592923D01*
X125145950Y-94592923D02*
X125264998Y-94533400D01*
X125264998Y-94533400D02*
X125324521Y-94473876D01*
X125324521Y-94473876D02*
X125384045Y-94354828D01*
X125384045Y-94354828D02*
X125384045Y-93997685D01*
X125384045Y-93997685D02*
X125324521Y-93878638D01*
X125324521Y-93878638D02*
X125264998Y-93819114D01*
X125264998Y-93819114D02*
X125145950Y-93759590D01*
X125145950Y-93759590D02*
X124907855Y-93759590D01*
X124907855Y-93759590D02*
X124788807Y-93819114D01*
X142884047Y-96605423D02*
X142884047Y-95950661D01*
X142884047Y-95950661D02*
X142943571Y-95831614D01*
X142943571Y-95831614D02*
X143062619Y-95772090D01*
X143062619Y-95772090D02*
X143300714Y-95772090D01*
X143300714Y-95772090D02*
X143419761Y-95831614D01*
X142884047Y-96545900D02*
X143003095Y-96605423D01*
X143003095Y-96605423D02*
X143300714Y-96605423D01*
X143300714Y-96605423D02*
X143419761Y-96545900D01*
X143419761Y-96545900D02*
X143479285Y-96426852D01*
X143479285Y-96426852D02*
X143479285Y-96307804D01*
X143479285Y-96307804D02*
X143419761Y-96188757D01*
X143419761Y-96188757D02*
X143300714Y-96129233D01*
X143300714Y-96129233D02*
X143003095Y-96129233D01*
X143003095Y-96129233D02*
X142884047Y-96069709D01*
X142288809Y-95772090D02*
X142288809Y-97022090D01*
X142288809Y-95831614D02*
X142169762Y-95772090D01*
X142169762Y-95772090D02*
X141931667Y-95772090D01*
X141931667Y-95772090D02*
X141812619Y-95831614D01*
X141812619Y-95831614D02*
X141753095Y-95891138D01*
X141753095Y-95891138D02*
X141693571Y-96010185D01*
X141693571Y-96010185D02*
X141693571Y-96367328D01*
X141693571Y-96367328D02*
X141753095Y-96486376D01*
X141753095Y-96486376D02*
X141812619Y-96545900D01*
X141812619Y-96545900D02*
X141931667Y-96605423D01*
X141931667Y-96605423D02*
X142169762Y-96605423D01*
X142169762Y-96605423D02*
X142288809Y-96545900D01*
X141157857Y-95772090D02*
X141157857Y-97022090D01*
X141157857Y-95831614D02*
X141038810Y-95772090D01*
X141038810Y-95772090D02*
X140800715Y-95772090D01*
X140800715Y-95772090D02*
X140681667Y-95831614D01*
X140681667Y-95831614D02*
X140622143Y-95891138D01*
X140622143Y-95891138D02*
X140562619Y-96010185D01*
X140562619Y-96010185D02*
X140562619Y-96367328D01*
X140562619Y-96367328D02*
X140622143Y-96486376D01*
X140622143Y-96486376D02*
X140681667Y-96545900D01*
X140681667Y-96545900D02*
X140800715Y-96605423D01*
X140800715Y-96605423D02*
X141038810Y-96605423D01*
X141038810Y-96605423D02*
X141157857Y-96545900D01*
X138895953Y-96605423D02*
X139015001Y-96545900D01*
X139015001Y-96545900D02*
X139074524Y-96486376D01*
X139074524Y-96486376D02*
X139134048Y-96367328D01*
X139134048Y-96367328D02*
X139134048Y-96010185D01*
X139134048Y-96010185D02*
X139074524Y-95891138D01*
X139074524Y-95891138D02*
X139015001Y-95831614D01*
X139015001Y-95831614D02*
X138895953Y-95772090D01*
X138895953Y-95772090D02*
X138717382Y-95772090D01*
X138717382Y-95772090D02*
X138598334Y-95831614D01*
X138598334Y-95831614D02*
X138538810Y-95891138D01*
X138538810Y-95891138D02*
X138479286Y-96010185D01*
X138479286Y-96010185D02*
X138479286Y-96367328D01*
X138479286Y-96367328D02*
X138538810Y-96486376D01*
X138538810Y-96486376D02*
X138598334Y-96545900D01*
X138598334Y-96545900D02*
X138717382Y-96605423D01*
X138717382Y-96605423D02*
X138895953Y-96605423D01*
X138122144Y-95772090D02*
X137645953Y-95772090D01*
X137943572Y-96605423D02*
X137943572Y-95533995D01*
X137943572Y-95533995D02*
X137884049Y-95414947D01*
X137884049Y-95414947D02*
X137765001Y-95355423D01*
X137765001Y-95355423D02*
X137645953Y-95355423D01*
X136455477Y-95772090D02*
X135979286Y-95772090D01*
X136276905Y-96605423D02*
X136276905Y-95533995D01*
X136276905Y-95533995D02*
X136217382Y-95414947D01*
X136217382Y-95414947D02*
X136098334Y-95355423D01*
X136098334Y-95355423D02*
X135979286Y-95355423D01*
X135562619Y-96605423D02*
X135562619Y-95772090D01*
X135562619Y-96010185D02*
X135503096Y-95891138D01*
X135503096Y-95891138D02*
X135443572Y-95831614D01*
X135443572Y-95831614D02*
X135324524Y-95772090D01*
X135324524Y-95772090D02*
X135205477Y-95772090D01*
X134312619Y-96545900D02*
X134431667Y-96605423D01*
X134431667Y-96605423D02*
X134669762Y-96605423D01*
X134669762Y-96605423D02*
X134788809Y-96545900D01*
X134788809Y-96545900D02*
X134848333Y-96426852D01*
X134848333Y-96426852D02*
X134848333Y-95950661D01*
X134848333Y-95950661D02*
X134788809Y-95831614D01*
X134788809Y-95831614D02*
X134669762Y-95772090D01*
X134669762Y-95772090D02*
X134431667Y-95772090D01*
X134431667Y-95772090D02*
X134312619Y-95831614D01*
X134312619Y-95831614D02*
X134253095Y-95950661D01*
X134253095Y-95950661D02*
X134253095Y-96069709D01*
X134253095Y-96069709D02*
X134848333Y-96188757D01*
X133241190Y-96545900D02*
X133360238Y-96605423D01*
X133360238Y-96605423D02*
X133598333Y-96605423D01*
X133598333Y-96605423D02*
X133717380Y-96545900D01*
X133717380Y-96545900D02*
X133776904Y-96426852D01*
X133776904Y-96426852D02*
X133776904Y-95950661D01*
X133776904Y-95950661D02*
X133717380Y-95831614D01*
X133717380Y-95831614D02*
X133598333Y-95772090D01*
X133598333Y-95772090D02*
X133360238Y-95772090D01*
X133360238Y-95772090D02*
X133241190Y-95831614D01*
X133241190Y-95831614D02*
X133181666Y-95950661D01*
X133181666Y-95950661D02*
X133181666Y-96069709D01*
X133181666Y-96069709D02*
X133776904Y-96188757D01*
X132110237Y-96605423D02*
X132110237Y-95355423D01*
X132110237Y-96545900D02*
X132229285Y-96605423D01*
X132229285Y-96605423D02*
X132467380Y-96605423D01*
X132467380Y-96605423D02*
X132586428Y-96545900D01*
X132586428Y-96545900D02*
X132645951Y-96486376D01*
X132645951Y-96486376D02*
X132705475Y-96367328D01*
X132705475Y-96367328D02*
X132705475Y-96010185D01*
X132705475Y-96010185D02*
X132645951Y-95891138D01*
X132645951Y-95891138D02*
X132586428Y-95831614D01*
X132586428Y-95831614D02*
X132467380Y-95772090D01*
X132467380Y-95772090D02*
X132229285Y-95772090D01*
X132229285Y-95772090D02*
X132110237Y-95831614D01*
X131336428Y-96605423D02*
X131455476Y-96545900D01*
X131455476Y-96545900D02*
X131514999Y-96486376D01*
X131514999Y-96486376D02*
X131574523Y-96367328D01*
X131574523Y-96367328D02*
X131574523Y-96010185D01*
X131574523Y-96010185D02*
X131514999Y-95891138D01*
X131514999Y-95891138D02*
X131455476Y-95831614D01*
X131455476Y-95831614D02*
X131336428Y-95772090D01*
X131336428Y-95772090D02*
X131157857Y-95772090D01*
X131157857Y-95772090D02*
X131038809Y-95831614D01*
X131038809Y-95831614D02*
X130979285Y-95891138D01*
X130979285Y-95891138D02*
X130919761Y-96010185D01*
X130919761Y-96010185D02*
X130919761Y-96367328D01*
X130919761Y-96367328D02*
X130979285Y-96486376D01*
X130979285Y-96486376D02*
X131038809Y-96545900D01*
X131038809Y-96545900D02*
X131157857Y-96605423D01*
X131157857Y-96605423D02*
X131336428Y-96605423D01*
X130384047Y-96605423D02*
X130384047Y-95772090D01*
X130384047Y-95891138D02*
X130324524Y-95831614D01*
X130324524Y-95831614D02*
X130205476Y-95772090D01*
X130205476Y-95772090D02*
X130026905Y-95772090D01*
X130026905Y-95772090D02*
X129907857Y-95831614D01*
X129907857Y-95831614D02*
X129848333Y-95950661D01*
X129848333Y-95950661D02*
X129848333Y-96605423D01*
X129848333Y-95950661D02*
X129788809Y-95831614D01*
X129788809Y-95831614D02*
X129669762Y-95772090D01*
X129669762Y-95772090D02*
X129491190Y-95772090D01*
X129491190Y-95772090D02*
X129372143Y-95831614D01*
X129372143Y-95831614D02*
X129312619Y-95950661D01*
X129312619Y-95950661D02*
X129312619Y-96605423D01*
X128776904Y-95355423D02*
X128776904Y-95593519D01*
X128300714Y-95355423D02*
X128300714Y-95593519D01*
M02*
