M48
; DRILL file {KiCad 7.0.6-0} date 2023 October 04, Wednesday 11:56:41
; FORMAT={-:-/ absolute / inch / decimal}
; #@! TF.CreationDate,2023-10-04T11:56:41+01:00
; #@! TF.GenerationSoftware,Kicad,Pcbnew,7.0.6-0
; #@! TF.FileFunction,Plated,1,2,PTH
FMAT,2
INCH
; #@! TA.AperFunction,Plated,PTH,ComponentDrill
T1C0.0300
; #@! TA.AperFunction,Plated,PTH,ComponentDrill
T2C0.0394
%
G90
G05
T1
X4.845Y-2.975
X4.845Y-3.075
X4.845Y-3.175
X4.845Y-3.275
X4.845Y-3.375
X4.845Y-3.475
X4.845Y-3.575
X4.845Y-3.675
X4.845Y-3.775
X4.845Y-3.875
X4.845Y-3.975
X4.845Y-4.075
X4.845Y-4.175
X4.845Y-4.275
X4.845Y-4.375
X5.845Y-2.975
X5.845Y-3.075
X5.845Y-3.175
X5.845Y-3.275
X5.845Y-3.375
X5.845Y-3.475
X5.845Y-3.575
X5.845Y-3.675
X5.845Y-3.775
X5.845Y-3.875
X5.845Y-3.975
X5.845Y-4.075
X5.845Y-4.175
X5.845Y-4.275
X5.845Y-4.375
T2
X4.53Y-3.0667
X4.53Y-3.2635
X4.71Y-3.91
X4.71Y-4.01
X4.71Y-4.4802
X4.71Y-4.5802
T0
M30
